<svg width="39" height="38" viewBox="0 0 39 38" fill="none" xmlns="http://www.w3.org/2000/svg">
<path d="M38.3 18.9163C38.3 29.3506 29.8382 37.8093 19.4 37.8093C8.96182 37.8093 0.5 29.3506 0.5 18.9163C0.5 8.48199 8.96182 0.0233078 19.4 0.0233078C29.8382 0.0233078 38.3 8.48199 38.3 18.9163Z" fill="#F5F5F5"/>
<rect x="19.085" y="2.47956" width="0.882" height="16.7515" rx="0.441" fill="black" stroke="black" stroke-width="0.882"/>
<path d="M30.362 18.4087C30.573 18.4087 30.744 18.5797 30.744 18.7907C30.744 19.0017 30.573 19.1727 30.362 19.1727L19.526 19.1727C19.315 19.1727 19.144 19.0017 19.144 18.7907C19.144 18.5797 19.315 18.4087 19.526 18.4087L24.944 18.4087L30.362 18.4087Z" fill="black" stroke="black"/>
</svg>
