<svg width="134" height="134" viewBox="0 0 134 134" fill="none" xmlns="http://www.w3.org/2000/svg">
<circle cx="67" cy="67" r="67" fill="#4281A4"/>
<path d="M29.0921 37.8875C27.0862 35.9697 27.0862 32.8603 29.0921 30.9425C31.0981 29.0247 34.3504 29.0247 36.3564 30.9425L104.156 95.7625C106.162 97.6803 106.162 100.79 104.156 102.708C102.15 104.625 98.8978 104.625 96.8919 102.708L29.0921 37.8875Z" fill="#F5F5F5"/>
<path d="M97.1955 30.9425C99.2015 29.0247 102.454 29.0247 104.46 30.9425C106.466 32.8603 106.466 35.9697 104.46 37.8875L36.66 102.708C34.6541 104.625 31.4017 104.625 29.3958 102.708C27.3898 100.79 27.3898 97.6803 29.3958 95.7625L97.1955 30.9425Z" fill="#F5F5F5"/>
</svg>
