<svg width="430" height="61" viewBox="0 0 430 61" fill="none" xmlns="http://www.w3.org/2000/svg">
<path d="M0.477539 57L11.5859 0.261719L29.7012 41.2773L48.4658 0.261719L58.4463 57H50.2773L45.1846 25.1445L29.5645 59.4268L14.3887 25.1104L8.71484 57H0.477539ZM98.7783 11.7119H77.6211V24.3926H98.1631V31.8779H77.6211V49.5146H98.7783V57H69.6572V4.22656H98.7783V11.7119ZM109.237 57V0.637695L147.724 40.9014V4.22656H155.688V60.2129L117.201 20.0518V57H109.237ZM176.332 4.22656V36.0137C176.332 40.5482 177.073 43.8636 178.554 45.96C180.764 48.9906 183.874 50.5059 187.885 50.5059C191.918 50.5059 195.04 48.9906 197.25 45.96C198.731 43.932 199.472 40.6165 199.472 36.0137V4.22656H207.436V38.2012C207.436 43.7611 205.704 48.3411 202.24 51.9414C198.344 55.9518 193.559 57.957 187.885 57.957C182.211 57.957 177.437 55.9518 173.563 51.9414C170.1 48.3411 168.368 43.7611 168.368 38.2012V4.22656H176.332Z" fill="#BDD358"/>
<path d="M218.271 57L229.379 0.261719L247.494 41.2773L266.259 0.261719L276.239 57H268.07L262.978 25.1445L247.357 59.4268L232.182 25.1104L226.508 57H218.271ZM318.451 44.1826H295.858L289.979 57H281.4L307.514 0.911133L332.704 57H323.988L318.451 44.1826ZM315.204 36.6973L307.377 18.7529L299.174 36.6973H315.204ZM350.956 11.7119V57H342.992V11.7119H330.858V4.22656H363.056V11.7119H350.956ZM378.129 4.22656V57H370.165V4.22656H378.129ZM429.809 7.06348V16.4971C425.206 12.6462 420.443 10.7207 415.521 10.7207C410.098 10.7207 405.53 12.6689 401.815 16.5654C398.078 20.4391 396.21 25.1787 396.21 30.7842C396.21 36.3213 398.078 40.9925 401.815 44.7979C405.552 48.6032 410.132 50.5059 415.556 50.5059C418.358 50.5059 420.74 50.0501 422.699 49.1387C423.793 48.6829 424.921 48.0677 426.083 47.293C427.268 46.5182 428.51 45.584 429.809 44.4902V54.0947C425.251 56.6696 420.466 57.957 415.453 57.957C407.911 57.957 401.474 55.3252 396.142 50.0615C390.832 44.7523 388.178 38.3493 388.178 30.8525C388.178 24.1305 390.399 18.1377 394.843 12.874C400.312 6.42546 407.387 3.20117 416.068 3.20117C420.808 3.20117 425.388 4.48861 429.809 7.06348Z" fill="#4281A4"/>
</svg>
